<?xml version="1.0" encoding="UTF-8" standalone="no"?>
<!-- Created with Inkscape (http://www.inkscape.org/) -->

<svg
   width="131.12622mm"
   height="127.1106mm"
   viewBox="0 0 131.12621 127.1106"
   version="1.1"
   id="svg5"
   xml:space="preserve"
   xmlns="http://www.w3.org/2000/svg"
   xmlns:svg="http://www.w3.org/2000/svg"><defs
     id="defs2"><clipPath
       clipPathUnits="userSpaceOnUse"
       id="clipPath6723"><path
         style="opacity:1;fill:#000000;fill-opacity:1;stroke:#000000;stroke-width:7.25417;stroke-linecap:square;stroke-linejoin:miter;stroke-dasharray:none;stroke-opacity:0.156438"
         d="m 111.21,91.206067 c 10.82747,-2.910865 7.0155,0.561735 10.52285,0.842261 3.50737,0.280502 0.85362,0.146287 1.28004,0.21909 0.42644,0.07273 13.6354,5.005176 20.4527,7.507423 6.8173,2.502219 19.20101,25.111829 28.80113,37.667409 9.60013,12.55554 -0.85575,22.45085 -1.284,33.67592 -0.42823,11.22506 -4.99467,10.00637 -7.49238,15.00919 -2.49773,5.00283 -49.94751,15.78281 -74.921656,23.67386 C 63.594559,217.69226 61.566325,167.9778 48.064763,147.06571 34.5632,126.15365 68.506439,115.64739 78.726881,99.937859 88.947323,84.228331 100.38255,94.116909 111.21,91.206067 Z"
         id="path6725" /></clipPath></defs><g
     id="layer1"
     transform="translate(-131.08504,-375.77691)"><g
       id="g5414"
       transform="translate(-1.4125286,2.2586755)"><g
         id="g2668"
         style="stroke:#ffffff"
         transform="translate(174.88134,61.186309)"><rect
           style="display:inline;fill:#000000;fill-opacity:0.955515;stroke:#ffffff;stroke-width:8.27699;stroke-dasharray:none;stroke-dashoffset:0;stroke-opacity:1"
           id="rect2654"
           width="175.84869"
           height="173.80644"
           x="633.15277"
           y="296.96136" /><g
           id="g6735"
           transform="matrix(1.0702395,0,0,1.1199296,602.21035,213.62621)"
           style="fill:#000000;fill-opacity:0;stroke:#ffffff"><ellipse
             style="display:inline;opacity:1;fill:#ffffff;fill-opacity:1;stroke:#ffffff;stroke-width:7.20179;stroke-dasharray:none;stroke-dashoffset:0;stroke-opacity:1"
             id="ellipse6727"
             cx="111.80526"
             cy="152.43184"
             rx="59.557632"
             ry="57.62537"
             transform="matrix(1,0,-0.00563696,0.99998412,4.7765548e-7,6.8236503e-7)" /><path
             style="opacity:1;fill:#000000;fill-opacity:0;stroke:#ff0000;stroke-width:7.25417;stroke-dasharray:none;stroke-dashoffset:0;stroke-opacity:1"
             d="M 118.68216,90.256454 75.328452,163.08528 110.98646,150.77235 69.036846,199.48567"
             id="path6729"
             clip-path="url(#clipPath6723)" /><path
             style="opacity:1;fill:#000000;fill-opacity:0;stroke:#000000;stroke-width:7.25373;stroke-linecap:butt;stroke-linejoin:miter;stroke-dasharray:none;stroke-dashoffset:0;stroke-opacity:0.999657"
             d="m 131.63882,130.99872 -30.30726,10.5743 18.57581,-29.74847 50.87417,65.14653"
             id="path6731" /><path
             style="opacity:1;mix-blend-mode:normal;fill:#000000;fill-opacity:0;stroke:#000000;stroke-width:8.72517;stroke-linecap:square;stroke-linejoin:round;stroke-dasharray:none;stroke-dashoffset:0;stroke-opacity:0.999657;paint-order:normal"
             d="m 128.35543,149.18198 -36.474461,45.3469 55.547351,-22.05073"
             id="path6733" /></g></g><g
         id="g2483"
         transform="translate(312.6948,61.186309)"><rect
           style="display:inline;fill:#000000;fill-opacity:0.955515;stroke:#ffffff;stroke-width:8.27699;stroke-dasharray:none;stroke-dashoffset:0;stroke-opacity:1"
           id="rect2463"
           width="175.84869"
           height="173.80644"
           x="274.44113"
           y="354.3074"
           transform="translate(-29.681381,-57.34603)" /><g
           id="g2451"
           transform="matrix(1.0380563,0,0,1.0380563,217.5159,225.63428)"
           style="stroke:#ffffff"><path
             style="opacity:1;fill:#000000;fill-opacity:0;stroke:#ff0000;stroke-width:7.25373;stroke-dasharray:none;stroke-dashoffset:0;stroke-opacity:1"
             d="M 114.53338,97.397608 75.328452,163.08528 110.98646,150.77235 73.458236,195.52324"
             id="path2443" /><path
             style="opacity:1;fill:#000000;fill-opacity:0;stroke:#ffffff;stroke-width:7.25373;stroke-linecap:butt;stroke-linejoin:miter;stroke-dasharray:none;stroke-dashoffset:0;stroke-opacity:1"
             d="m 131.63882,130.99872 -30.30726,10.5743 18.57581,-29.74847 47.33238,61.37189"
             id="path2445" /><path
             style="opacity:1;mix-blend-mode:normal;fill:#ffffff;fill-opacity:0;stroke:#ffffff;stroke-width:8.72517;stroke-linecap:square;stroke-linejoin:round;stroke-dasharray:none;stroke-dashoffset:0;stroke-opacity:0.999314;paint-order:normal"
             d="m 128.35543,149.18198 -36.474461,45.3469 55.547351,-22.05073"
             id="path2447" /><ellipse
             style="display:inline;opacity:1;fill:#000000;fill-opacity:0;stroke:#ffffff;stroke-width:7.20179;stroke-dasharray:none;stroke-dashoffset:0;stroke-opacity:1"
             id="ellipse2449"
             cx="111.80526"
             cy="152.43184"
             rx="59.557632"
             ry="57.62537"
             transform="matrix(1,0,-0.00563696,0.99998411,0,0)" /></g></g><g
         id="g1582"
         transform="matrix(1.0380563,0,0,1.0380563,82.89247,278.84323)"
         style="stroke:#ffffff"><path
           style="opacity:1;fill:#000000;fill-opacity:0;stroke:#ff0000;stroke-width:7.25373;stroke-dasharray:none;stroke-dashoffset:0;stroke-opacity:1"
           d="M 114.53338,97.397608 75.328452,163.08528 110.98646,150.77235 73.458236,195.52324"
           id="path1574" /><path
           style="opacity:1;fill:#000000;fill-opacity:0;stroke:#000000;stroke-width:7.25373;stroke-linecap:butt;stroke-linejoin:miter;stroke-dasharray:none;stroke-dashoffset:0;stroke-opacity:0.999657"
           d="m 131.63882,130.99872 -30.30726,10.5743 18.57581,-29.74847 47.33238,61.37189"
           id="path1576" /><path
           style="opacity:1;mix-blend-mode:normal;fill:#ffffff;fill-opacity:0;stroke:#000000;stroke-width:8.72517;stroke-linecap:square;stroke-linejoin:round;stroke-dasharray:none;stroke-dashoffset:0;stroke-opacity:0.999657;paint-order:normal"
           d="m 128.35543,149.18198 -36.474461,45.3469 55.547351,-22.05073"
           id="path1578" /><ellipse
           style="display:inline;opacity:1;fill:#000000;fill-opacity:0;stroke:#000000;stroke-width:7.20179;stroke-dasharray:none;stroke-dashoffset:0;stroke-opacity:1"
           id="ellipse1580"
           cx="111.80526"
           cy="152.43184"
           rx="59.557632"
           ry="57.62537"
           transform="matrix(1,0,-0.00563696,0.99998411,0,0)" /></g><g
         id="g1653"
         transform="matrix(1.0366998,0,0,1.0848327,293.90867,268.57473)"
         style="fill:#000000;fill-opacity:0;stroke:#ffffff"><ellipse
           style="display:inline;opacity:1;fill:#000000;fill-opacity:1;stroke:#000000;stroke-width:7.20179;stroke-dasharray:none;stroke-dashoffset:0;stroke-opacity:1"
           id="ellipse1651"
           cx="111.80526"
           cy="152.43184"
           rx="59.557632"
           ry="57.62537"
           transform="matrix(1,0,-0.00563696,0.99998412,4.7765548e-7,6.8236503e-7)" /><path
           style="opacity:1;fill:#000000;fill-opacity:0;stroke:#ff0000;stroke-width:7.25417;stroke-dasharray:none;stroke-dashoffset:0;stroke-opacity:1"
           d="M 118.68216,90.256454 75.328452,163.08528 110.98646,150.77235 69.036846,199.48567"
           id="path1645"
           clip-path="url(#clipPath6723)" /><path
           style="opacity:1;fill:#000000;fill-opacity:0;stroke:#ffffff;stroke-width:7.25373;stroke-linecap:butt;stroke-linejoin:miter;stroke-dasharray:none;stroke-dashoffset:0;stroke-opacity:0.999657"
           d="m 131.63882,130.99872 -30.30726,10.5743 18.57581,-29.74847 50.87417,65.14653"
           id="path1647" /><path
           style="opacity:1;mix-blend-mode:normal;fill:#000000;fill-opacity:0;stroke:#ffffff;stroke-width:8.72517;stroke-linecap:square;stroke-linejoin:round;stroke-dasharray:none;stroke-dashoffset:0;stroke-opacity:0.999657;paint-order:normal"
           d="m 128.35543,149.18198 -36.474461,45.3469 55.547351,-22.05073"
           id="path1649" /></g></g></g></svg>
